<?xml version="1.0" encoding="UTF-8"?><svg id="Layer_2" xmlns="http://www.w3.org/2000/svg" viewBox="0 0 980.631 980.631"><defs><style>.cls-1{fill:#d72630;}.cls-2{fill:#c7c7c7;}.cls-3{fill:#69abe5;}.cls-4{fill:#231f20;}</style></defs><path class="cls-3" d="m872.518,486.733v.188c-.1,211.135-171.293,382.262-382.45,382.262v-155.197c125.444,0,227.153-101.643,227.253-227.065v-.188c0-125.51-101.743-227.253-227.253-227.253V104.283c211.223,0,382.45,171.227,382.45,382.45Z"/><path class="cls-1" d="m663.002,486.733v.188c-.1,95.424-77.488,172.746-172.934,172.746s-172.834-77.321-172.934-172.746v-.188c0-95.513,77.421-172.934,172.934-172.934s172.934,77.421,172.934,172.934Z"/><path class="cls-2" d="m980.631,490.651c0,270.609-219.371,489.98-489.98,489.98v-53.576c241.021,0,436.404-195.382,436.404-436.404,0-1.042,0-2.095-.022-3.137h53.576c.022,1.042.022,2.084.022,3.137Z"/><path class="cls-2" d="m489.958,0v53.576c-239.979,0-434.708,193.686-436.382,433.266H0C1.674,217.675,220.402,0,489.958,0Z"/><path class="cls-4" d="m204.427,486.733v.188c.1,157.669,127.949,285.452,285.641,285.452v96.81c-211.157,0-382.351-171.127-382.45-382.262v-.188c0-211.224,171.227-382.45,382.45-382.45v96.81c-157.758,0-285.641,127.883-285.641,285.641Z"/></svg>